<svg width="240" height="60" viewBox="0 0 240 60" fill="none" xmlns="http://www.w3.org/2000/svg">
<path d="M240 59H0V61H240V59Z" fill="#EBEEFC" mask="url(#path-1-inside-1_1_1496)"/>
<path d="M26.0049 34.6196H32.4034V37.6993H26.0049V34.6196ZM35.6015 34.6196H41.9959V37.6993H35.6015V34.6196ZM26 28.4602H41.9976V31.5399H26V28.4602ZM26.0049 22.3007H35.6031V25.3804H26.0049V22.3007ZM38.8011 22.3007H42V25.3804H38.8011V22.3007Z" fill="#263FA0"/>
<path d="M58.446 36V25.236H54.09V23.31H65.106V25.236H60.75V36H58.446ZM67.8414 36.18C67.2054 36.18 66.6354 36.06 66.1314 35.82C65.6394 35.568 65.2494 35.232 64.9614 34.812C64.6854 34.392 64.5474 33.918 64.5474 33.39C64.5474 32.742 64.7154 32.232 65.0514 31.86C65.3874 31.476 65.9334 31.2 66.6894 31.032C67.4454 30.864 68.4594 30.78 69.7314 30.78H70.3614V30.402C70.3614 29.802 70.2294 29.37 69.9654 29.106C69.7014 28.842 69.2574 28.71 68.6334 28.71C68.1414 28.71 67.6374 28.788 67.1214 28.944C66.6054 29.088 66.0834 29.316 65.5554 29.628L64.9074 28.098C65.2194 27.882 65.5854 27.696 66.0054 27.54C66.4374 27.372 66.8874 27.246 67.3554 27.162C67.8354 27.066 68.2854 27.018 68.7054 27.018C69.9894 27.018 70.9434 27.318 71.5674 27.918C72.1914 28.506 72.5034 29.424 72.5034 30.672V36H70.3974V34.596C70.1934 35.088 69.8694 35.478 69.4254 35.766C68.9814 36.042 68.4534 36.18 67.8414 36.18ZM68.3094 34.632C68.8974 34.632 69.3834 34.428 69.7674 34.02C70.1634 33.612 70.3614 33.096 70.3614 32.472V32.076H69.7494C68.6214 32.076 67.8354 32.166 67.3914 32.346C66.9594 32.514 66.7434 32.826 66.7434 33.282C66.7434 33.678 66.8814 34.002 67.1574 34.254C67.4334 34.506 67.8174 34.632 68.3094 34.632ZM78.0092 36.18C77.2652 36.18 76.5692 36.09 75.9212 35.91C75.2732 35.73 74.7332 35.472 74.3012 35.136L74.8772 33.66C75.3212 33.96 75.8192 34.194 76.3712 34.362C76.9232 34.518 77.4752 34.596 78.0272 34.596C78.6032 34.596 79.0292 34.5 79.3052 34.308C79.5932 34.104 79.7372 33.84 79.7372 33.516C79.7372 33.012 79.3652 32.688 78.6212 32.544L76.8212 32.202C75.2972 31.914 74.5352 31.122 74.5352 29.826C74.5352 29.25 74.6912 28.752 75.0032 28.332C75.3272 27.912 75.7712 27.588 76.3352 27.36C76.8992 27.132 77.5472 27.018 78.2792 27.018C78.9032 27.018 79.5032 27.108 80.0792 27.288C80.6552 27.456 81.1472 27.714 81.5552 28.062L80.9432 29.538C80.5952 29.25 80.1752 29.022 79.6832 28.854C79.2032 28.686 78.7412 28.602 78.2972 28.602C77.7092 28.602 77.2712 28.704 76.9832 28.908C76.7072 29.112 76.5692 29.382 76.5692 29.718C76.5692 30.246 76.9112 30.57 77.5952 30.69L79.3952 31.032C80.1752 31.176 80.7632 31.44 81.1592 31.824C81.5672 32.208 81.7712 32.724 81.7712 33.372C81.7712 34.248 81.4292 34.938 80.7452 35.442C80.0612 35.934 79.1492 36.18 78.0092 36.18ZM83.5763 36V23.31H85.8263V30.942H85.8623L89.4083 27.198H92.1263L88.1303 31.41L92.3783 36H89.6243L85.8623 32.076H85.8263V36H83.5763ZM103.154 36.18C102.506 36.18 101.924 36.036 101.408 35.748C100.904 35.46 100.526 35.07 100.274 34.578V36H98.0782V23.31H100.328V28.494C100.592 28.05 100.97 27.696 101.462 27.432C101.966 27.156 102.53 27.018 103.154 27.018C103.934 27.018 104.612 27.204 105.188 27.576C105.764 27.948 106.214 28.476 106.538 29.16C106.862 29.832 107.024 30.642 107.024 31.59C107.024 32.526 106.862 33.342 106.538 34.038C106.214 34.722 105.758 35.25 105.17 35.622C104.594 35.994 103.922 36.18 103.154 36.18ZM102.524 34.47C103.196 34.47 103.736 34.23 104.144 33.75C104.552 33.258 104.756 32.538 104.756 31.59C104.756 30.63 104.552 29.916 104.144 29.448C103.736 28.968 103.196 28.728 102.524 28.728C101.852 28.728 101.312 28.968 100.904 29.448C100.496 29.916 100.292 30.63 100.292 31.59C100.292 32.538 100.496 33.258 100.904 33.75C101.312 34.23 101.852 34.47 102.524 34.47ZM112.885 36.18C111.973 36.18 111.181 35.994 110.509 35.622C109.837 35.25 109.315 34.722 108.943 34.038C108.571 33.342 108.385 32.526 108.385 31.59C108.385 30.654 108.571 29.844 108.943 29.16C109.315 28.476 109.837 27.948 110.509 27.576C111.181 27.204 111.973 27.018 112.885 27.018C113.797 27.018 114.589 27.204 115.261 27.576C115.933 27.948 116.455 28.476 116.827 29.16C117.199 29.844 117.385 30.654 117.385 31.59C117.385 32.526 117.199 33.342 116.827 34.038C116.455 34.722 115.933 35.25 115.261 35.622C114.589 35.994 113.797 36.18 112.885 36.18ZM112.885 34.47C113.557 34.47 114.097 34.23 114.505 33.75C114.913 33.258 115.117 32.538 115.117 31.59C115.117 30.63 114.913 29.916 114.505 29.448C114.097 28.968 113.557 28.728 112.885 28.728C112.213 28.728 111.673 28.968 111.265 29.448C110.857 29.916 110.653 30.63 110.653 31.59C110.653 32.538 110.857 33.258 111.265 33.75C111.673 34.23 112.213 34.47 112.885 34.47ZM122.14 36.18C121.504 36.18 120.934 36.06 120.43 35.82C119.938 35.568 119.548 35.232 119.26 34.812C118.984 34.392 118.846 33.918 118.846 33.39C118.846 32.742 119.014 32.232 119.35 31.86C119.686 31.476 120.232 31.2 120.988 31.032C121.744 30.864 122.758 30.78 124.03 30.78H124.66V30.402C124.66 29.802 124.528 29.37 124.264 29.106C124 28.842 123.556 28.71 122.932 28.71C122.44 28.71 121.936 28.788 121.42 28.944C120.904 29.088 120.382 29.316 119.854 29.628L119.206 28.098C119.518 27.882 119.884 27.696 120.304 27.54C120.736 27.372 121.186 27.246 121.654 27.162C122.134 27.066 122.584 27.018 123.004 27.018C124.288 27.018 125.242 27.318 125.866 27.918C126.49 28.506 126.802 29.424 126.802 30.672V36H124.696V34.596C124.492 35.088 124.168 35.478 123.724 35.766C123.28 36.042 122.752 36.18 122.14 36.18ZM122.608 34.632C123.196 34.632 123.682 34.428 124.066 34.02C124.462 33.612 124.66 33.096 124.66 32.472V32.076H124.048C122.92 32.076 122.134 32.166 121.69 32.346C121.258 32.514 121.042 32.826 121.042 33.282C121.042 33.678 121.18 34.002 121.456 34.254C121.732 34.506 122.116 34.632 122.608 34.632ZM129.086 36V27.198H131.282V28.746C131.714 27.702 132.638 27.126 134.054 27.018L134.738 26.964L134.882 28.872L133.586 28.998C132.11 29.142 131.372 29.898 131.372 31.266V36H129.086ZM139.378 36.18C138.61 36.18 137.932 35.994 137.344 35.622C136.768 35.25 136.318 34.722 135.994 34.038C135.67 33.342 135.508 32.526 135.508 31.59C135.508 30.642 135.67 29.832 135.994 29.16C136.318 28.476 136.768 27.948 137.344 27.576C137.932 27.204 138.61 27.018 139.378 27.018C140.002 27.018 140.566 27.156 141.07 27.432C141.574 27.708 141.952 28.074 142.204 28.53V23.31H144.454V36H142.258V34.542C142.018 35.046 141.64 35.448 141.124 35.748C140.608 36.036 140.026 36.18 139.378 36.18ZM140.008 34.47C140.68 34.47 141.22 34.23 141.628 33.75C142.036 33.258 142.24 32.538 142.24 31.59C142.24 30.63 142.036 29.916 141.628 29.448C141.22 28.968 140.68 28.728 140.008 28.728C139.336 28.728 138.796 28.968 138.388 29.448C137.98 29.916 137.776 30.63 137.776 31.59C137.776 32.538 137.98 33.258 138.388 33.75C138.796 34.23 139.336 34.47 140.008 34.47ZM150.009 36.18C149.265 36.18 148.569 36.09 147.921 35.91C147.273 35.73 146.733 35.472 146.301 35.136L146.877 33.66C147.321 33.96 147.819 34.194 148.371 34.362C148.923 34.518 149.475 34.596 150.027 34.596C150.603 34.596 151.029 34.5 151.305 34.308C151.593 34.104 151.737 33.84 151.737 33.516C151.737 33.012 151.365 32.688 150.621 32.544L148.821 32.202C147.297 31.914 146.535 31.122 146.535 29.826C146.535 29.25 146.691 28.752 147.003 28.332C147.327 27.912 147.771 27.588 148.335 27.36C148.899 27.132 149.547 27.018 150.279 27.018C150.903 27.018 151.503 27.108 152.079 27.288C152.655 27.456 153.147 27.714 153.555 28.062L152.943 29.538C152.595 29.25 152.175 29.022 151.683 28.854C151.203 28.686 150.741 28.602 150.297 28.602C149.709 28.602 149.271 28.704 148.983 28.908C148.707 29.112 148.569 29.382 148.569 29.718C148.569 30.246 148.911 30.57 149.595 30.69L151.395 31.032C152.175 31.176 152.763 31.44 153.159 31.824C153.567 32.208 153.771 32.724 153.771 33.372C153.771 34.248 153.429 34.938 152.745 35.442C152.061 35.934 151.149 36.18 150.009 36.18Z" fill="#232323"/>
</svg>
