<svg width="20" height="20" viewBox="0 0 20 20" fill="#3659E2" xmlns="http://www.w3.org/2000/svg">
<path  d="M11.1429 8.85714V3.14286C11.1429 2.83975 11.0225 2.54906 10.8081 2.33474C10.5938 2.12041 10.3031 2 10 2C9.6969 2 9.40621 2.12041 9.19188 2.33474C8.97755 2.54906 8.85714 2.83975 8.85714 3.14286V8.85714H3.14286C2.83975 8.85714 2.54906 8.97755 2.33474 9.19188C2.12041 9.40621 2 9.6969 2 10C2 10.3031 2.12041 10.5938 2.33474 10.8081C2.54906 11.0225 2.83975 11.1429 3.14286 11.1429H8.85714V16.8571C8.85714 17.1602 8.97755 17.4509 9.19188 17.6653C9.40621 17.8796 9.6969 18 10 18C10.3031 18 10.5938 17.8796 10.8081 17.6653C11.0225 17.4509 11.1429 17.1602 11.1429 16.8571V11.1429H16.8571C17.1602 11.1429 17.4509 11.0225 17.6653 10.8081C17.8796 10.5938 18 10.3031 18 10C18 9.6969 17.8796 9.40621 17.6653 9.19188C17.4509 8.97755 17.1602 8.85714 16.8571 8.85714H11.1429Z" fill="#97A1B2"/>
</svg>
